<svg width="100%" viewBox="0 0 200 200" fill="#ffffff">
  <path
    d="M61.39767,70.21631c-11.48087,0 -20.79867,9.48419 -20.79867,20.96506c0,7.8203 4.15973,14.80865 10.64892,18.30283v15.30782h-7.15474c-24.29285,0 -44.09318,-19.96672 -44.09318,-44.42596c0,-24.62562 19.80033,-44.59235 44.09318,-44.59235c4.6589,0 9.3178,0.83195 13.81032,2.32945c5.99002,-18.13644 22.79534,-30.44925 41.93012,-30.44925c19.13478,0 35.9401,12.31281 42.09651,30.44925c4.49251,-1.4975 9.15141,-2.32945 13.97671,-2.32945c24.29285,0 44.09318,19.96672 44.09318,44.59235c0,24.45923 -19.80033,44.42596 -44.09318,44.42596h-7.32113v-15.30782c6.48918,-3.49418 10.81531,-10.48253 10.81531,-18.30283c0,-11.64725 -9.3178,-20.96506 -20.79867,-20.96506c-8.81864,0 -16.13977,5.32446 -19.30116,12.97837c-3.1614,-7.65391 -10.48253,-12.97837 -19.30116,-12.97837c-8.81864,0 -16.13977,5.32446 -19.30116,12.97837c-3.1614,-7.65391 -10.64892,-12.97837 -19.30116,-12.97837zM47.25458,91.18136c0,-7.98669 6.3228,-14.30948 14.14309,-14.30948c7.65391,0 14.14309,6.48918 14.14309,14.30948c0,6.65557 -4.6589,12.31281 -10.81531,13.81032v45.09151c0,1.83028 -1.4975,3.32779 -3.32779,3.32779h-19.30116c-1.4975,6.3228 -7.15474,10.9817 -13.81032,10.9817c-7.8203,0 -14.14309,-6.3228 -14.14309,-14.30948c0,-7.98669 6.3228,-14.30948 14.14309,-14.30948c6.65557,0 12.31281,4.6589 13.81032,10.9817h15.97338v-41.76373c-6.15641,-1.4975 -10.81531,-7.15474 -10.81531,-13.81032zM99.83361,76.87188c7.8203,0 14.14309,6.48918 14.14309,14.30948c0,6.65557 -4.6589,12.31281 -10.81531,13.81032v59.23461c6.15641,1.4975 10.81531,7.15474 10.81531,13.81032c0,7.98669 -6.3228,14.30948 -14.14309,14.30948c-7.8203,0 -14.14309,-6.48918 -14.14309,-14.30948c0,-6.65557 4.6589,-12.31281 10.81531,-13.81032v-59.23461c-6.15641,-1.4975 -10.81531,-7.15474 -10.81531,-13.81032c0,-7.98669 6.3228,-14.30948 14.14309,-14.30948zM157.57072,146.75541c1.4975,-6.3228 7.15474,-10.9817 13.81032,-10.9817c7.8203,0 14.14309,6.3228 14.14309,14.30948c0,7.98669 -6.3228,14.30948 -14.14309,14.30948c-6.65557,0 -12.31281,-4.6589 -13.81032,-10.9817h-19.30116c-1.83028,0 -3.32779,-1.4975 -3.32779,-3.32779v-45.09151c-6.15641,-1.4975 -10.81531,-7.15474 -10.81531,-13.81032c0,-7.98669 6.3228,-14.30948 14.14309,-14.30948c7.8203,0 14.14309,6.48918 14.14309,14.30948c0,6.65557 -4.6589,12.31281 -10.81531,13.81032v41.76373zM53.91015,91.18136c0,4.32612 3.32779,7.65391 7.48752,7.65391c3.99334,0 7.48752,-3.32779 7.48752,-7.65391c0,-4.32612 -3.32779,-7.65391 -7.48752,-7.65391c-4.15973,0 -7.48752,3.32779 -7.48752,7.65391zM99.83361,83.52745c-4.15973,0 -7.48752,3.49418 -7.48752,7.65391c0,4.15973 3.32779,7.65391 7.48752,7.65391c4.15973,0 7.48752,-3.32779 7.48752,-7.65391c0,-4.32612 -3.32779,-7.65391 -7.48752,-7.65391zM138.26955,83.52745c-4.15973,0 -7.48752,3.49418 -7.48752,7.65391c0,4.15973 3.49418,7.65391 7.48752,7.65391c4.15973,0 7.48752,-3.32779 7.48752,-7.65391c0,-4.32612 -3.32779,-7.65391 -7.48752,-7.65391zM80.53245,99.00166c-1.83028,4.49251 -4.99168,8.15308 -9.3178,10.48253v15.30782h18.63561v-15.30782c-4.15973,-2.32945 -7.48752,-5.99002 -9.3178,-10.48253zM119.13478,99.00166c-1.83028,4.49251 -4.99168,8.15308 -9.3178,10.48253v15.30782h18.46922v-15.30782c-4.15973,-2.32945 -7.32113,-5.99002 -9.15141,-10.48253zM20.79867,149.91681c0,4.32612 3.32779,7.65391 7.48752,7.65391c4.15973,0 7.48752,-3.32779 7.48752,-7.65391c0,-4.32612 -3.32779,-7.65391 -7.48752,-7.65391c-4.15973,0 -7.48752,3.32779 -7.48752,7.65391zM163.89351,149.91681c0,4.32612 3.32779,7.65391 7.48752,7.65391c4.15973,0 7.48752,-3.32779 7.48752,-7.65391c0,-4.32612 -3.32779,-7.65391 -7.48752,-7.65391c-4.15973,0 -7.48752,3.32779 -7.48752,7.65391zM99.83361,185.69052c4.15973,0 7.48752,-3.49418 7.48752,-7.65391c0,-4.15973 -3.32779,-7.65391 -7.48752,-7.65391c-4.15973,0 -7.48752,3.32779 -7.48752,7.65391c0,4.32612 3.32779,7.65391 7.48752,7.65391z"
    fill-rule="evenodd"
  ></path>
</svg>
